<svg width="565" height="650" viewBox="0 0 565 650" fill="none" xmlns="http://www.w3.org/2000/svg">
<g filter="url(#filter0_d)">
<rect x="49" y="168" width="141" height="270" rx="8" fill="white"/>
<path fill-rule="evenodd" clip-rule="evenodd" d="M119 435C127.284 435 134 428.284 134 420C134 411.716 127.284 405 119 405C110.716 405 104 411.716 104 420C104 428.284 110.716 435 119 435Z" fill="white"/>
<path fill-rule="evenodd" clip-rule="evenodd" d="M106 172C107.105 172 108 171.105 108 170C108 168.895 107.105 168 106 168C104.895 168 104 168.895 104 170C104 171.105 104.895 172 106 172Z" fill="white"/>
<rect x="113" y="168" width="21" height="4" rx="2" fill="white"/>
<rect x="63" y="196" width="113" height="54" rx="4" fill="#F2F2F2"/>
<g clip-path="url(#clip0)">
<rect x="102" y="212.2" width="55" height="8.1" rx="3" fill="#DDE3E9"/>
<rect x="102" y="225.7" width="36.9178" height="8.1" rx="3" fill="#DDE3E9"/>
</g>
<path fill-rule="evenodd" clip-rule="evenodd" d="M84 235C90.6274 235 96 229.627 96 223C96 216.373 90.6274 211 84 211C77.3726 211 72 216.373 72 223C72 229.627 77.3726 235 84 235Z" fill="#C5CFD6"/>
<rect x="63" y="258" width="113" height="42" rx="4" fill="#F2F2F2"/>
<g clip-path="url(#clip1)">
<rect x="102" y="270.6" width="55" height="6.3" rx="3" fill="#DDE3E9"/>
<rect x="102" y="281.1" width="36.9178" height="6.3" rx="3" fill="#DDE3E9"/>
</g>
<path fill-rule="evenodd" clip-rule="evenodd" d="M84 291C90.6274 291 96 285.627 96 279C96 272.373 90.6274 267 84 267C77.3726 267 72 272.373 72 279C72 285.627 77.3726 291 84 291Z" fill="#C5CFD6"/>
<rect x="63" y="308" width="113" height="42" rx="4" fill="#F2F2F2"/>
<g clip-path="url(#clip2)">
<rect x="102" y="320.6" width="55" height="6.3" rx="3" fill="#DDE3E9"/>
<rect x="102" y="331.1" width="36.9178" height="6.3" rx="3" fill="#DDE3E9"/>
</g>
<path fill-rule="evenodd" clip-rule="evenodd" d="M84 341C90.6274 341 96 335.627 96 329C96 322.373 90.6274 317 84 317C77.3726 317 72 322.373 72 329C72 335.627 77.3726 341 84 341Z" fill="#AFB9C5"/>
<rect x="63" y="358" width="113" height="42" rx="4" fill="#F2F2F2"/>
<g clip-path="url(#clip3)">
<rect x="102" y="370.6" width="55" height="6.3" rx="3" fill="#DDE3E9"/>
<rect x="102" y="381.1" width="36.9178" height="6.3" rx="3" fill="#DDE3E9"/>
</g>
<path fill-rule="evenodd" clip-rule="evenodd" d="M84 391C90.6274 391 96 385.627 96 379C96 372.373 90.6274 367 84 367C77.3726 367 72 372.373 72 379C72 385.627 77.3726 391 84 391Z" fill="#C5CFD6"/>
</g>
<g clip-path="url(#clip4)" filter="url(#filter1_d)">
<rect x="107.437" y="191" width="141.563" height="271" rx="8" fill="white"/>
<path fill-rule="evenodd" clip-rule="evenodd" d="M182 459C190.284 459 197 452.284 197 444C197 435.716 190.284 429 182 429C173.716 429 167 435.716 167 444C167 452.284 173.716 459 182 459Z" fill="white"/>
<path fill-rule="evenodd" clip-rule="evenodd" d="M169 196C170.105 196 171 195.105 171 194C171 192.895 170.105 192 169 192C167.895 192 167 192.895 167 194C167 195.105 167.895 196 169 196Z" fill="white"/>
<rect x="176" y="192" width="21" height="4" rx="2" fill="white"/>
<g clip-path="url(#clip5)">
<rect x="131" y="219" width="104" height="54" rx="4" fill="#F0F0F0"/>
<g clip-path="url(#clip6)">
<rect x="140" y="235.2" width="46" height="8.1" rx="3" fill="#DDE3E9"/>
<rect x="140" y="248.7" width="30.8767" height="8.1" rx="3" fill="#DDE3E9"/>
</g>
<path fill-rule="evenodd" clip-rule="evenodd" d="M234 253C237.866 253 241 249.866 241 246C241 242.134 237.866 239 234 239C230.134 239 227 242.134 227 246C227 249.866 230.134 253 234 253Z" fill="#DDE3E9"/>
<path fill-rule="evenodd" clip-rule="evenodd" d="M234 249C235.657 249 237 247.657 237 246C237 244.343 235.657 243 234 243C232.343 243 231 244.343 231 246C231 247.657 232.343 249 234 249Z" fill="#F2F2F2"/>
</g>
<rect x="131" y="281" width="104" height="42" rx="4" fill="#F0F0F0"/>
<g clip-path="url(#clip7)">
<rect x="170" y="293.6" width="46" height="6.3" rx="3" fill="#DDE3E9"/>
<rect x="170" y="304.1" width="30.8767" height="6.3" rx="3" fill="#DDE3E9"/>
</g>
<path fill-rule="evenodd" clip-rule="evenodd" d="M152 314C158.627 314 164 308.627 164 302C164 295.373 158.627 290 152 290C145.373 290 140 295.373 140 302C140 308.627 145.373 314 152 314Z" fill="#C5CFD6"/>
<g clip-path="url(#clip8)">
<rect x="131" y="331" width="104" height="42" rx="4" fill="#F0F0F0"/>
<g clip-path="url(#clip9)">
<rect x="140" y="343.6" width="46" height="6.3" rx="3" fill="#DDE3E9"/>
<rect x="140" y="354.1" width="30.8767" height="6.3" rx="3" fill="#AFB9C5"/>
</g>
<path fill-rule="evenodd" clip-rule="evenodd" d="M234 359C237.866 359 241 355.866 241 352C241 348.134 237.866 345 234 345C230.134 345 227 348.134 227 352C227 355.866 230.134 359 234 359Z" fill="#DDE3E9"/>
<path fill-rule="evenodd" clip-rule="evenodd" d="M234 355C235.657 355 237 353.657 237 352C237 350.343 235.657 349 234 349C232.343 349 231 350.343 231 352C231 353.657 232.343 355 234 355Z" fill="#F2F2F2"/>
</g>
<rect x="131" y="381" width="104" height="42" rx="4" fill="#F0F0F0"/>
<g clip-path="url(#clip10)">
<rect x="170" y="393.6" width="46" height="6.3" rx="3" fill="#DDE3E9"/>
<rect x="170" y="404.1" width="30.8767" height="6.3" rx="3" fill="#DDE3E9"/>
</g>
<path fill-rule="evenodd" clip-rule="evenodd" d="M152 414C158.627 414 164 408.627 164 402C164 395.373 158.627 390 152 390C145.373 390 140 395.373 140 402C140 408.627 145.373 414 152 414Z" fill="#C5CFD6"/>
</g>
<g clip-path="url(#clip11)" filter="url(#filter2_d)">
<rect x="167" y="214" width="299" height="309" rx="8" fill="white"/>
<rect x="389.242" y="252.402" width="62.4776" height="72.3382" rx="8" fill="#F2F2F2"/>
<path fill-rule="evenodd" clip-rule="evenodd" d="M420.481 294.376C428.368 294.376 434.761 287.978 434.761 280.087C434.761 272.195 428.368 265.798 420.481 265.798C412.594 265.798 406.2 272.195 406.2 280.087C406.2 287.978 412.594 294.376 420.481 294.376Z" fill="#DDE3E9"/>
<rect x="398.167" y="297.948" width="44.6268" height="5.35839" rx="2.6792" fill="#DDE3E9"/>
<rect x="405.307" y="306.879" width="30.3463" height="5.35839" rx="2.6792" fill="#DDE3E9"/>
<path d="M167 222C167 217.582 170.582 214 175 214H458C462.418 214 466 217.582 466 222V241H167V222Z" fill="#7E99CC"/>
<path fill-rule="evenodd" clip-rule="evenodd" d="M180 232C182.209 232 184 230.209 184 228C184 225.791 182.209 224 180 224C177.791 224 176 225.791 176 228C176 230.209 177.791 232 180 232Z" fill="white"/>
<path fill-rule="evenodd" clip-rule="evenodd" d="M192 232C194.209 232 196 230.209 196 228C196 225.791 194.209 224 192 224C189.791 224 188 225.791 188 228C188 230.209 189.791 232 192 232Z" fill="white"/>
<path fill-rule="evenodd" clip-rule="evenodd" d="M204 232C206.209 232 208 230.209 208 228C208 225.791 206.209 224 204 224C201.791 224 200 225.791 200 228C200 230.209 201.791 232 204 232Z" fill="white"/>
<g clip-path="url(#clip12)">
<rect x="389.242" y="331.884" width="62.4776" height="173.254" rx="8" fill="#F2F2F2"/>
<g clip-path="url(#clip13)">
<rect x="407.242" y="349.884" width="26" height="26" rx="4" fill="#DDE3E9"/>
<rect x="407.242" y="383.884" width="26" height="25" rx="4" fill="#AFB9C5"/>
<rect x="407.242" y="416.884" width="26" height="25" rx="4" fill="#DDE3E9"/>
<rect x="407.242" y="482.884" width="26" height="25" rx="4" fill="#DDE3E9"/>
<rect x="407.242" y="449.884" width="26" height="25" rx="4" fill="#C5CFD6"/>
</g>
</g>
<rect x="183" y="258" width="189" height="47" rx="4" fill="#F2F2F2"/>
<g clip-path="url(#clip14)">
<rect x="192" y="272.1" width="131" height="7.05" rx="3" fill="#DDE3E9"/>
<rect x="192" y="283.85" width="87.9315" height="7.05" rx="3" fill="#DDE3E9"/>
</g>
<path fill-rule="evenodd" clip-rule="evenodd" d="M355.954 288.5C359.82 288.5 362.954 285.366 362.954 281.5C362.954 277.634 359.82 274.5 355.954 274.5C352.088 274.5 348.954 277.634 348.954 281.5C348.954 285.366 352.088 288.5 355.954 288.5Z" fill="#DDE3E9"/>
<path fill-rule="evenodd" clip-rule="evenodd" d="M355.954 284.5C357.611 284.5 358.954 283.157 358.954 281.5C358.954 279.843 357.611 278.5 355.954 278.5C354.297 278.5 352.954 279.843 352.954 281.5C352.954 283.157 354.297 284.5 355.954 284.5Z" fill="#F2F2F2"/>
<rect x="183" y="313" width="189" height="39" rx="4" fill="#F2F2F2"/>
<g clip-path="url(#clip15)">
<rect x="192" y="324.7" width="131" height="5.85" rx="2.925" fill="#DDE3E9"/>
<rect x="192" y="334.45" width="87.9315" height="5.85" rx="2.925" fill="#DDE3E9"/>
</g>
<path fill-rule="evenodd" clip-rule="evenodd" d="M355.954 339.5C359.82 339.5 362.954 336.366 362.954 332.5C362.954 328.634 359.82 325.5 355.954 325.5C352.088 325.5 348.954 328.634 348.954 332.5C348.954 336.366 352.088 339.5 355.954 339.5Z" fill="#DDE3E9"/>
<path fill-rule="evenodd" clip-rule="evenodd" d="M355.954 335.5C357.611 335.5 358.954 334.157 358.954 332.5C358.954 330.843 357.611 329.5 355.954 329.5C354.297 329.5 352.954 330.843 352.954 332.5C352.954 334.157 354.297 335.5 355.954 335.5Z" fill="#F2F2F2"/>
<rect x="183" y="360" width="189" height="39" rx="4" fill="#F2F2F2"/>
<g clip-path="url(#clip16)">
<rect x="192" y="371.7" width="131" height="5.85" rx="2.925" fill="#DDE3E9"/>
<rect x="192" y="381.45" width="87.9315" height="5.85" rx="2.925" fill="#DDE3E9"/>
</g>
<path fill-rule="evenodd" clip-rule="evenodd" d="M355.954 386.5C359.82 386.5 362.954 383.366 362.954 379.5C362.954 375.634 359.82 372.5 355.954 372.5C352.088 372.5 348.954 375.634 348.954 379.5C348.954 383.366 352.088 386.5 355.954 386.5Z" fill="#DDE3E9"/>
<path fill-rule="evenodd" clip-rule="evenodd" d="M355.954 382.5C357.611 382.5 358.954 381.157 358.954 379.5C358.954 377.843 357.611 376.5 355.954 376.5C354.297 376.5 352.954 377.843 352.954 379.5C352.954 381.157 354.297 382.5 355.954 382.5Z" fill="#AFB9C5"/>
<g clip-path="url(#clip17)">
<rect x="183" y="501" width="189" height="39" rx="4" fill="white"/>
<g clip-path="url(#clip18)">
<rect x="192" y="512.7" width="131" height="5.85" rx="2.925" fill="#DDE3E9"/>
<rect x="192" y="522.45" width="87.9315" height="5.85" rx="2.925" fill="#DDE3E9"/>
</g>
<path fill-rule="evenodd" clip-rule="evenodd" d="M365.954 527.5C369.82 527.5 372.954 524.366 372.954 520.5C372.954 516.634 369.82 513.5 365.954 513.5C362.088 513.5 358.954 516.634 358.954 520.5C358.954 524.366 362.088 527.5 365.954 527.5Z" fill="#DDE3E9"/>
<path fill-rule="evenodd" clip-rule="evenodd" d="M365.954 523.5C367.611 523.5 368.954 522.157 368.954 520.5C368.954 518.843 367.611 517.5 365.954 517.5C364.297 517.5 362.954 518.843 362.954 520.5C362.954 522.157 364.297 523.5 365.954 523.5Z" fill="#F2F2F2"/>
</g>
<rect x="183" y="454" width="189" height="39" rx="4" fill="#F2F2F2"/>
<g clip-path="url(#clip19)">
<rect x="192" y="465.7" width="131" height="5.85" rx="2.925" fill="#DDE3E9"/>
<rect x="192" y="475.45" width="87.9315" height="5.85" rx="2.925" fill="#DDE3E9"/>
</g>
<path fill-rule="evenodd" clip-rule="evenodd" d="M355.954 480.5C359.82 480.5 362.954 477.366 362.954 473.5C362.954 469.634 359.82 466.5 355.954 466.5C352.088 466.5 348.954 469.634 348.954 473.5C348.954 477.366 352.088 480.5 355.954 480.5Z" fill="#DDE3E9"/>
<path fill-rule="evenodd" clip-rule="evenodd" d="M355.954 476.5C357.611 476.5 358.954 475.157 358.954 473.5C358.954 471.843 357.611 470.5 355.954 470.5C354.297 470.5 352.954 471.843 352.954 473.5C352.954 475.157 354.297 476.5 355.954 476.5Z" fill="#F2F2F2"/>
<rect x="183" y="407" width="189" height="39" rx="4" fill="#F2F2F2"/>
<g clip-path="url(#clip20)">
<rect x="192" y="418.7" width="131" height="5.85" rx="2.925" fill="#DDE3E9"/>
<rect x="192" y="428.45" width="87.9315" height="5.85" rx="2.925" fill="#DDE3E9"/>
</g>
<path fill-rule="evenodd" clip-rule="evenodd" d="M355.954 433.5C359.82 433.5 362.954 430.366 362.954 426.5C362.954 422.634 359.82 419.5 355.954 419.5C352.088 419.5 348.954 422.634 348.954 426.5C348.954 430.366 352.088 433.5 355.954 433.5Z" fill="#DDE3E9"/>
<path fill-rule="evenodd" clip-rule="evenodd" d="M355.954 429.5C357.611 429.5 358.954 428.157 358.954 426.5C358.954 424.843 357.611 423.5 355.954 423.5C354.297 423.5 352.954 424.843 352.954 426.5C352.954 428.157 354.297 429.5 355.954 429.5Z" fill="#F2F2F2"/>
</g>
<path d="M326.326 624.247C374.4 624.247 413.389 617.643 413.389 609.497C413.389 601.35 374.4 594.746 326.326 594.746C278.252 594.746 239.263 601.35 239.263 609.497C239.263 617.643 278.252 624.247 326.326 624.247Z" fill="#E2E9F3"/>
<path d="M362.287 630.907C364.895 632.602 388.913 638.88 392.161 639.985C395.409 641.089 405.031 640.227 406.409 632.912C407.787 625.597 405.009 621.943 397.215 619.16C389.42 616.376 368.465 613.396 366.084 613.486C363.703 613.577 359.141 617.269 359.198 620.813C359.255 624.357 359.687 629.213 362.287 630.907Z" fill="#7E99CC"/>
<path d="M354.171 628.797L367.881 631.444C373.567 626.822 374.373 621.549 370.3 615.623C366.13 614.205 361.87 613.068 357.547 612.219L354.171 628.797Z" fill="url(#paint0_linear)"/>
<path d="M298.784 631.134C296.134 632.734 271.908 638.169 268.611 639.148C265.314 640.128 255.741 638.944 254.605 631.584C253.47 624.224 256.388 620.691 264.273 618.161C272.158 615.63 293.208 613.403 295.582 613.596C297.955 613.789 302.395 617.605 302.206 621.16C302.017 624.715 301.449 629.53 298.784 631.134Z" fill="#7E99CC"/>
<path d="M306.975 629.303L293.182 631.463C287.66 626.644 287.038 621.349 291.315 615.577C295.535 614.308 299.834 613.324 304.186 612.631L306.975 629.303Z" fill="url(#paint1_linear)"/>
<path d="M283.703 553.386C283.703 554.067 282.568 564.797 278.124 570.248C272.54 577.097 254.772 573.031 257.304 578.402C265.057 594.995 303.194 614.64 328.995 614.64C349.913 614.64 377.826 605.384 400.985 580.747C404.736 576.753 378.882 577.555 365.221 567.887C362.649 566.069 360.148 561.774 357.718 555.001C308.375 551.524 283.703 550.986 283.703 553.386Z" fill="url(#paint2_linear)"/>
<path opacity="0.3" d="M332.005 587.612C332.005 581.458 334.548 574.514 341.555 566.809C346.226 561.673 350.565 568.607 354.573 587.612C339.527 591.717 332.005 591.717 332.005 587.612Z" fill="url(#paint3_linear)"/>
<path opacity="0.3" d="M323.166 587.612C323.166 581.458 320.622 574.514 313.615 566.809C308.944 561.673 304.601 568.607 300.586 587.612C315.636 591.717 323.163 591.717 323.166 587.612Z" fill="url(#paint4_linear)"/>
<path d="M342.94 452.703H300.166V425.849H342.94V452.703Z" fill="#051D4E"/>
<path d="M311.124 441.232C311.124 445.287 311.427 447.238 309.296 450.793C307.165 454.349 296.255 475.779 303.69 485.352C311.124 494.925 341.676 495.7 342.982 483.082C344.287 470.465 336.145 453.513 333.742 448.717C331.338 443.921 331.966 438.263 332.856 436.186C333.745 434.11 311.124 437.174 311.124 441.232Z" fill="url(#paint5_linear)"/>
<path opacity="0.05" d="M310.969 442.121C327.205 455.122 336.607 461.621 339.173 461.618C341.74 461.616 339.866 453.618 333.552 437.624L310.969 442.121Z" fill="black"/>
<path d="M322.238 444.761H318.214C311.022 444.761 302.694 437.48 301.937 428.497L300.355 409.208C299.617 400.225 306.305 392.944 315.295 392.944H325.516C334.506 392.944 341.195 400.225 340.46 409.208L338.874 428.497C338.148 437.465 329.464 444.738 322.238 444.761Z" fill="url(#paint6_linear)"/>
<path d="M306.54 397.747L306.79 403.549C306.874 405.234 308.258 406.561 309.947 406.575H330.448C332.121 406.575 333.476 405.221 333.476 403.549V397.369C334.521 399.854 337.943 416.488 337.943 425.899C337.943 435.309 339.711 450.199 339.912 453.906C340.112 457.613 353.652 465.438 355.999 462.983C358.346 460.529 349.121 421.81 346.649 407.487C344.178 393.163 335.505 380.255 318.142 380.86C300.779 381.465 294.249 399.771 293.094 408.848C291.94 417.926 285.792 459.874 287.886 462.983C289.979 466.092 302.747 457.242 302.747 453.906V425.899C302.747 416.488 306.54 397.747 306.54 397.747Z" fill="url(#paint7_linear)"/>
<path d="M305.045 474.409C305.045 482.953 312.093 488.43 323.147 488.43C334.2 488.43 341.104 483.562 341.672 474.239C345.223 483.584 346.221 512.775 344.666 561.813C338.302 565.091 331.917 566.679 325.512 566.578C315.905 566.416 305.507 562.532 302.853 557.036C300.2 551.54 305.045 465.865 305.045 474.409Z" fill="white"/>
<path d="M242.53 539.059C237.726 543.155 235.894 544.449 234.887 548.136C233.88 551.824 238.26 562.467 244.067 567.222C249.873 571.976 250.801 564.952 250.744 564.952C250.687 564.952 247.606 554.525 248.602 551.835C249.597 549.146 252.765 547.21 253.401 545.406C254.037 543.601 247.33 534.952 242.53 539.059Z" fill="url(#paint8_linear)"/>
<path d="M416.379 539.059C421.179 543.155 423.015 544.449 424.018 548.136C425.021 551.824 420.645 562.467 414.842 567.222C409.04 571.976 408.105 564.952 408.161 564.952C408.218 564.952 411.303 554.525 410.304 551.835C409.304 549.146 406.14 547.21 405.508 545.406C404.876 543.601 411.576 534.952 416.379 539.059Z" fill="url(#paint9_linear)"/>
<path d="M240.91 540.001C248.276 534.861 256.135 526.823 257.414 525.628C258.694 524.433 271.227 474.701 275.705 469.466C280.183 464.231 307.854 449.692 310.795 447.102C310.579 449.708 303.281 459.14 318.256 462.643C305.636 474.595 309.875 484.977 310.795 493.695C311.715 502.413 309.875 516.203 309.875 529.301C309.875 542.399 309.875 548.235 310.795 567.346C311.715 586.458 317.813 590.592 314.304 594.083C310.795 597.574 288.662 589.503 283.609 587.472C278.555 585.441 277.333 572.524 280.471 560.05C283.609 547.577 284.809 536.797 284.809 531.971C284.809 527.145 286.122 511.316 283.609 517.897C281.095 524.478 277.976 538.48 273.649 544.479C269.323 550.478 262.763 547.599 254.068 547.599C250.585 537.009 243.775 538.144 240.91 540.005L240.391 540.383C240.556 540.244 240.729 540.117 240.91 540.001Z" fill="#DFEBFF"/>
<path d="M268.032 525.064C269.077 525.064 269.925 524.218 269.925 523.173C269.925 522.129 269.077 521.282 268.032 521.282C266.987 521.282 266.139 522.129 266.139 523.173C266.139 524.218 266.987 525.064 268.032 525.064Z" fill="white"/>
<path d="M275.981 513.34C277.026 513.34 277.874 512.493 277.874 511.449C277.874 510.404 277.026 509.558 275.981 509.558C274.936 509.558 274.088 510.404 274.088 511.449C274.088 512.493 274.936 513.34 275.981 513.34Z" fill="white"/>
<path d="M280.902 494.429C281.947 494.429 282.795 493.582 282.795 492.538C282.795 491.493 281.947 490.646 280.902 490.646C279.857 490.646 279.009 491.493 279.009 492.538C279.009 493.582 279.857 494.429 280.902 494.429Z" fill="white"/>
<path d="M289.23 501.237C290.275 501.237 291.123 500.39 291.123 499.346C291.123 498.301 290.275 497.455 289.23 497.455C288.185 497.455 287.337 498.301 287.337 499.346C287.337 500.39 288.185 501.237 289.23 501.237Z" fill="white"/>
<path d="M302.1 501.615C303.146 501.615 303.993 500.768 303.993 499.724C303.993 498.679 303.146 497.833 302.1 497.833C301.055 497.833 300.208 498.679 300.208 499.724C300.208 500.768 301.055 501.615 302.1 501.615Z" fill="white"/>
<path d="M300.964 487.62C302.01 487.62 302.857 486.774 302.857 485.729C302.857 484.685 302.01 483.838 300.964 483.838C299.919 483.838 299.072 484.685 299.072 485.729C299.072 486.774 299.919 487.62 300.964 487.62Z" fill="white"/>
<path d="M288.094 479.678C289.14 479.678 289.987 478.831 289.987 477.787C289.987 476.742 289.14 475.895 288.094 475.895C287.049 475.895 286.202 476.742 286.202 477.787C286.202 478.831 287.049 479.678 288.094 479.678Z" fill="white"/>
<path d="M303.993 474.383C305.038 474.383 305.885 473.536 305.885 472.491C305.885 471.447 305.038 470.6 303.993 470.6C302.947 470.6 302.1 471.447 302.1 472.491C302.1 473.536 302.947 474.383 303.993 474.383Z" fill="white"/>
<path d="M294.529 466.062C295.575 466.062 296.422 465.215 296.422 464.171C296.422 463.126 295.575 462.28 294.529 462.28C293.484 462.28 292.637 463.126 292.637 464.171C292.637 465.215 293.484 466.062 294.529 466.062Z" fill="white"/>
<path d="M275.603 481.191C276.648 481.191 277.495 480.344 277.495 479.299C277.495 478.255 276.648 477.408 275.603 477.408C274.557 477.408 273.71 478.255 273.71 479.299C273.71 480.344 274.557 481.191 275.603 481.191Z" fill="white"/>
<path d="M268.032 503.128C269.077 503.128 269.925 502.281 269.925 501.237C269.925 500.192 269.077 499.346 268.032 499.346C266.987 499.346 266.139 500.192 266.139 501.237C266.139 502.281 266.987 503.128 268.032 503.128Z" fill="white"/>
<path d="M258.19 536.789C259.236 536.789 260.083 535.943 260.083 534.898C260.083 533.854 259.236 533.007 258.19 533.007C257.145 533.007 256.298 533.854 256.298 534.898C256.298 535.943 257.145 536.789 258.19 536.789Z" fill="white"/>
<path d="M285.077 469.546C286.122 469.546 286.97 468.699 286.97 467.655C286.97 466.61 286.122 465.763 285.077 465.763C284.032 465.763 283.184 466.61 283.184 467.655C283.184 468.699 284.032 469.546 285.077 469.546Z" fill="white"/>
<path d="M258.947 545.489C259.993 545.489 260.84 544.642 260.84 543.598C260.84 542.553 259.993 541.707 258.947 541.707C257.902 541.707 257.055 542.553 257.055 543.598C257.055 544.642 257.902 545.489 258.947 545.489Z" fill="white"/>
<path d="M272.196 539.437C273.241 539.437 274.088 538.59 274.088 537.546C274.088 536.501 273.241 535.655 272.196 535.655C271.15 535.655 270.303 536.501 270.303 537.546C270.303 538.59 271.15 539.437 272.196 539.437Z" fill="white"/>
<path d="M302.1 516.744C303.146 516.744 303.993 515.897 303.993 514.853C303.993 513.808 303.146 512.961 302.1 512.961C301.055 512.961 300.208 513.808 300.208 514.853C300.208 515.897 301.055 516.744 302.1 516.744Z" fill="white"/>
<path d="M288.851 514.096C289.897 514.096 290.744 513.25 290.744 512.205C290.744 511.161 289.897 510.314 288.851 510.314C287.806 510.314 286.959 511.161 286.959 512.205C286.959 513.25 287.806 514.096 288.851 514.096Z" fill="white"/>
<path d="M293.772 532.629C294.818 532.629 295.665 531.782 295.665 530.738C295.665 529.693 294.818 528.847 293.772 528.847C292.727 528.847 291.88 529.693 291.88 530.738C291.88 531.782 292.727 532.629 293.772 532.629Z" fill="white"/>
<path d="M305.886 531.116C306.931 531.116 307.778 530.269 307.778 529.225C307.778 528.18 306.931 527.334 305.886 527.334C304.84 527.334 303.993 528.18 303.993 529.225C303.993 530.269 304.84 531.116 305.886 531.116Z" fill="white"/>
<path d="M305.886 551.162C306.931 551.162 307.778 550.315 307.778 549.271C307.778 548.227 306.931 547.38 305.886 547.38C304.84 547.38 303.993 548.227 303.993 549.271C303.993 550.315 304.84 551.162 305.886 551.162Z" fill="white"/>
<path d="M289.608 553.432C290.654 553.432 291.501 552.585 291.501 551.541C291.501 550.496 290.654 549.649 289.608 549.649C288.563 549.649 287.716 550.496 287.716 551.541C287.716 552.585 288.563 553.432 289.608 553.432Z" fill="white"/>
<path d="M296.801 543.219C297.846 543.219 298.693 542.372 298.693 541.328C298.693 540.283 297.846 539.437 296.801 539.437C295.755 539.437 294.908 540.283 294.908 541.328C294.908 542.372 295.755 543.219 296.801 543.219Z" fill="white"/>
<path d="M302.857 564.778C303.903 564.778 304.75 563.931 304.75 562.887C304.75 561.843 303.903 560.996 302.857 560.996C301.812 560.996 300.965 561.843 300.965 562.887C300.965 563.931 301.812 564.778 302.857 564.778Z" fill="white"/>
<path d="M332.913 446.603C335.858 449.197 363.771 464.235 368.253 469.466C372.735 474.697 386.328 528.091 387.649 529.301C388.97 530.511 409.876 536.51 415.433 538.303C413.287 538.303 406.424 540.89 410.633 550.141C415.104 551.484 376.906 556.136 372.579 550.141C368.253 544.146 362.859 524.475 360.349 517.879C357.839 511.283 360.349 524.46 360.349 529.286C360.349 534.112 360.349 550.134 363.487 560.032C366.625 569.93 365.402 585.422 360.349 587.453C355.295 589.484 343.167 594.197 343.167 587.453C343.167 587.453 338.401 571.299 338.345 562.547C338.303 555.78 336.123 529.108 335.438 520.814C333.655 499.255 332.08 498.737 332.568 494.107C333.488 485.389 338.322 474.58 325.702 462.628C340.676 459.141 333.42 449.178 332.913 446.603Z" fill="#DFEBFF"/>
<path d="M347.146 468.331C348.191 468.331 349.038 467.485 349.038 466.44C349.038 465.396 348.191 464.549 347.146 464.549C346.1 464.549 345.253 465.396 345.253 466.44C345.253 467.485 346.1 468.331 347.146 468.331Z" fill="white"/>
<path d="M358.145 471.331C359.191 471.331 360.038 470.485 360.038 469.44C360.038 468.396 359.191 467.549 358.145 467.549C357.1 467.549 356.253 468.396 356.253 469.44C356.253 470.485 357.1 471.331 358.145 471.331Z" fill="white"/>
<path d="M367.207 481.569C368.253 481.569 369.1 480.722 369.1 479.678C369.1 478.634 368.253 477.787 367.207 477.787C366.162 477.787 365.315 478.634 365.315 479.678C365.315 480.722 366.162 481.569 367.207 481.569Z" fill="white"/>
<path d="M354.716 481.569C355.761 481.569 356.609 480.722 356.609 479.678C356.609 478.634 355.761 477.787 354.716 477.787C353.671 477.787 352.823 478.634 352.823 479.678C352.823 480.722 353.671 481.569 354.716 481.569Z" fill="white"/>
<path d="M338.061 477.409C339.106 477.409 339.953 476.562 339.953 475.518C339.953 474.473 339.106 473.626 338.061 473.626C337.015 473.626 336.168 474.473 336.168 475.518C336.168 476.562 337.015 477.409 338.061 477.409Z" fill="white"/>
<path d="M342.603 490.646C343.648 490.646 344.495 489.8 344.495 488.755C344.495 487.711 343.648 486.864 342.603 486.864C341.557 486.864 340.71 487.711 340.71 488.755C340.71 489.8 341.557 490.646 342.603 490.646Z" fill="white"/>
<path d="M362.665 495.564C363.71 495.564 364.558 494.717 364.558 493.673C364.558 492.628 363.71 491.781 362.665 491.781C361.62 491.781 360.772 492.628 360.772 493.673C360.772 494.717 361.62 495.564 362.665 495.564Z" fill="white"/>
<path d="M375.914 503.506C376.959 503.506 377.806 502.66 377.806 501.615C377.806 500.571 376.959 499.724 375.914 499.724C374.868 499.724 374.021 500.571 374.021 501.615C374.021 502.66 374.868 503.506 375.914 503.506Z" fill="white"/>
<path d="M354.716 503.128C355.761 503.128 356.609 502.281 356.609 501.237C356.609 500.193 355.761 499.346 354.716 499.346C353.671 499.346 352.823 500.193 352.823 501.237C352.823 502.281 353.671 503.128 354.716 503.128Z" fill="white"/>
<path d="M341.846 504.263C342.891 504.263 343.738 503.416 343.738 502.372C343.738 501.327 342.891 500.481 341.846 500.481C340.8 500.481 339.953 501.327 339.953 502.372C339.953 503.416 340.8 504.263 341.846 504.263Z" fill="white"/>
<path d="M343.739 519.77C344.784 519.77 345.631 518.923 345.631 517.879C345.631 516.834 344.784 515.988 343.739 515.988C342.693 515.988 341.846 516.834 341.846 517.879C341.846 518.923 342.693 519.77 343.739 519.77Z" fill="white"/>
<path d="M341.089 534.142C342.134 534.142 342.981 533.295 342.981 532.251C342.981 531.207 342.134 530.36 341.089 530.36C340.043 530.36 339.196 531.207 339.196 532.251C339.196 533.295 340.043 534.142 341.089 534.142Z" fill="white"/>
<path d="M352.445 534.142C353.49 534.142 354.338 533.295 354.338 532.251C354.338 531.207 353.49 530.36 352.445 530.36C351.4 530.36 350.552 531.207 350.552 532.251C350.552 533.295 351.4 534.142 352.445 534.142Z" fill="white"/>
<path d="M350.931 545.11C351.976 545.11 352.823 544.264 352.823 543.219C352.823 542.175 351.976 541.328 350.931 541.328C349.885 541.328 349.038 542.175 349.038 543.219C349.038 544.264 349.885 545.11 350.931 545.11Z" fill="white"/>
<path d="M342.982 553.81C344.027 553.81 344.874 552.963 344.874 551.919C344.874 550.875 344.027 550.028 342.982 550.028C341.936 550.028 341.089 550.875 341.089 551.919C341.089 552.963 341.936 553.81 342.982 553.81Z" fill="white"/>
<path d="M346.389 567.804C347.434 567.804 348.281 566.958 348.281 565.913C348.281 564.869 347.434 564.022 346.389 564.022C345.343 564.022 344.496 564.869 344.496 565.913C344.496 566.958 345.343 567.804 346.389 567.804Z" fill="white"/>
<path d="M359.637 564.4C360.682 564.4 361.53 563.553 361.53 562.509C361.53 561.465 360.682 560.618 359.637 560.618C358.592 560.618 357.744 561.465 357.744 562.509C357.744 563.553 358.592 564.4 359.637 564.4Z" fill="white"/>
<path d="M360.394 553.054C361.439 553.054 362.287 552.207 362.287 551.163C362.287 550.118 361.439 549.271 360.394 549.271C359.349 549.271 358.501 550.118 358.501 551.163C358.501 552.207 359.349 553.054 360.394 553.054Z" fill="white"/>
<path d="M355.852 515.609C356.897 515.609 357.745 514.763 357.745 513.718C357.745 512.674 356.897 511.827 355.852 511.827C354.807 511.827 353.959 512.674 353.959 513.718C353.959 514.763 354.807 515.609 355.852 515.609Z" fill="white"/>
<path d="M368.722 514.475C369.767 514.475 370.615 513.628 370.615 512.583C370.615 511.539 369.767 510.692 368.722 510.692C367.677 510.692 366.829 511.539 366.829 512.583C366.829 513.628 367.677 514.475 368.722 514.475Z" fill="white"/>
<path d="M377.428 525.065C378.474 525.065 379.321 524.218 379.321 523.174C379.321 522.129 378.474 521.283 377.428 521.283C376.383 521.283 375.536 522.129 375.536 523.174C375.536 524.218 376.383 525.065 377.428 525.065Z" fill="white"/>
<path d="M374.4 539.815C375.445 539.815 376.292 538.969 376.292 537.924C376.292 536.88 375.445 536.033 374.4 536.033C373.354 536.033 372.507 536.88 372.507 537.924C372.507 538.969 373.354 539.815 374.4 539.815Z" fill="white"/>
<path d="M388.406 535.655C389.451 535.655 390.298 534.808 390.298 533.764C390.298 532.719 389.451 531.873 388.406 531.873C387.36 531.873 386.513 532.719 386.513 533.764C386.513 534.808 387.36 535.655 388.406 535.655Z" fill="white"/>
<path d="M388.784 544.732C389.829 544.732 390.677 543.886 390.677 542.841C390.677 541.797 389.829 540.95 388.784 540.95C387.739 540.95 386.891 541.797 386.891 542.841C386.891 543.886 387.739 544.732 388.784 544.732Z" fill="white"/>
<path d="M403.925 541.707C404.971 541.707 405.818 540.86 405.818 539.815C405.818 538.771 404.971 537.924 403.925 537.924C402.88 537.924 402.033 538.771 402.033 539.815C402.033 540.86 402.88 541.707 403.925 541.707Z" fill="white"/>
<path d="M297.3 612.056C303.236 605.838 364.24 558.617 376.618 552.596C388.996 546.574 407.34 540.617 413.438 550.86C419.536 561.102 413.022 570.259 399.164 582.717C385.306 595.176 318.21 624.617 308.338 628.698C298.466 632.779 291.38 618.282 297.3 612.056Z" fill="#C0D2F0"/>
<path opacity="0.3" d="M329.612 620.918C320.274 620.053 308.792 615.954 295.165 608.622L308.243 599.779L332.284 616.648C339.845 620.359 338.954 621.783 329.612 620.918Z" fill="url(#paint10_linear)"/>
<path d="M362.086 612.056C356.166 605.835 295.146 558.613 282.772 552.592C270.398 546.571 252.05 540.614 245.952 550.856C239.854 561.098 246.365 570.255 260.227 582.714C274.089 595.172 341.176 624.617 351.048 628.698C360.921 632.779 368.011 618.282 362.086 612.056Z" fill="#C0D2F0"/>
<path d="M310.851 447.106C305.302 451.467 304.416 459.799 304.969 463.687C305.34 466.282 306.864 471.002 309.542 477.848C311.275 471.211 314.247 466.168 318.456 462.719C313.554 460.869 308.1 457.363 310.851 447.106Z" fill="url(#paint11_linear)"/>
<path d="M332.875 446.728C338.428 451.089 339.31 459.421 338.757 463.309C338.389 465.904 336.864 470.624 334.184 477.47C332.451 470.833 329.479 465.79 325.27 462.341C330.172 460.491 335.627 456.985 332.875 446.728Z" fill="url(#paint12_linear)"/>
<path d="M475.051 649.815L437.955 633.474C437.223 633.149 436.776 632.397 436.841 631.599C436.906 630.801 437.47 630.131 438.245 629.93L509.261 611.532L547.532 628.958L475.051 649.815Z" fill="url(#paint13_linear)"/>
<path d="M561.741 573.069L494.488 586.013C492.315 586.432 490.587 588.079 490.065 590.228L475.548 650L544.579 632.808C546.25 632.39 547.579 631.126 548.078 629.478L564.332 575.943C564.694 574.749 564.019 573.488 562.825 573.126C562.474 573.02 562.102 573.001 561.741 573.069Z" fill="url(#paint14_linear)"/>
<path d="M524.799 616.135C521.586 618.252 517.966 618.719 516.079 615.853C514.192 612.987 516.455 609.175 519.65 607.059C522.844 604.942 526.11 604.524 527.997 607.39C529.884 610.256 528.012 614.019 524.799 616.135Z" fill="#D6E3FA"/>
<g filter="url(#filter3_d)">
<path fill-rule="evenodd" clip-rule="evenodd" d="M465.5 168C487.315 168 505 150.315 505 128.5C505 106.685 487.315 89 465.5 89C443.685 89 426 106.685 426 128.5C426 150.315 443.685 168 465.5 168Z" fill="#E5E9EF"/>
</g>
<path fill-rule="evenodd" clip-rule="evenodd" d="M465.5 99.4342C466.735 99.4342 467.736 98.4332 467.736 97.1984C467.736 95.9635 466.735 94.9625 465.5 94.9625C464.265 94.9625 463.264 95.9635 463.264 97.1984C463.264 98.4332 464.265 99.4342 465.5 99.4342Z" fill="#AFB9C5"/>
<path fill-rule="evenodd" clip-rule="evenodd" d="M434.198 130.736C435.433 130.736 436.434 129.735 436.434 128.5C436.434 127.265 435.433 126.264 434.198 126.264C432.963 126.264 431.962 127.265 431.962 128.5C431.962 129.735 432.963 130.736 434.198 130.736Z" fill="#AFB9C5"/>
<path fill-rule="evenodd" clip-rule="evenodd" d="M496.802 130.736C498.037 130.736 499.038 129.735 499.038 128.5C499.038 127.265 498.037 126.264 496.802 126.264C495.567 126.264 494.566 127.265 494.566 128.5C494.566 129.735 495.567 130.736 496.802 130.736Z" fill="#AFB9C5"/>
<path fill-rule="evenodd" clip-rule="evenodd" d="M465.5 162.038C466.735 162.038 467.736 161.037 467.736 159.802C467.736 158.567 466.735 157.566 465.5 157.566C464.265 157.566 463.264 158.567 463.264 159.802C463.264 161.037 464.265 162.038 465.5 162.038Z" fill="#AFB9C5"/>
<path fill-rule="evenodd" clip-rule="evenodd" d="M465.5 101.67L466.991 127.755H464.01L465.5 101.67Z" fill="#AFB9C5"/>
<path fill-rule="evenodd" clip-rule="evenodd" d="M478.69 141.69L464.988 130.096L467.096 127.988L478.69 141.69Z" fill="#AFB9C5"/>
<path fill-rule="evenodd" clip-rule="evenodd" d="M465.5 131.481C467.146 131.481 468.481 130.146 468.481 128.5C468.481 126.853 467.146 125.519 465.5 125.519C463.853 125.519 462.519 126.853 462.519 128.5C462.519 130.146 463.853 131.481 465.5 131.481Z" fill="#AFB9C5"/>
<g filter="url(#filter4_d)">
<path fill-rule="evenodd" clip-rule="evenodd" d="M123.5 120.721C137.014 120.721 147.97 114.921 147.97 107.766C147.97 100.612 137.014 94.8119 123.5 94.8119C109.986 94.8119 99.0303 100.612 99.0303 107.766C99.0303 114.921 109.986 120.721 123.5 120.721Z" fill="white"/>
</g>
<path fill-rule="evenodd" clip-rule="evenodd" d="M152 116.691C152 100.792 139.24 87.9028 123.5 87.9028C107.76 87.9028 95 100.792 95 116.691" fill="#DDE3E9"/>
<rect x="122" width="3" height="92" fill="#DDE3E9"/>
<g opacity="0.7">
<g filter="url(#filter5_d)">
<path fill-rule="evenodd" clip-rule="evenodd" d="M260.5 103.986C271.643 103.986 280.677 98.8227 280.677 92.4534C280.677 86.084 271.643 80.9207 260.5 80.9207C249.357 80.9207 240.323 86.084 240.323 92.4534C240.323 98.8227 249.357 103.986 260.5 103.986Z" fill="white"/>
</g>
<path fill-rule="evenodd" clip-rule="evenodd" d="M284 97.3985C284 83.2444 273.479 71.7703 260.5 71.7703C247.521 71.7703 237 83.2444 237 97.3985" fill="#DDE3E9"/>
<rect x="260" width="2" height="86" fill="#DDE3E9"/>
</g>
<defs>
<filter id="filter0_d" x="0" y="119" width="241" height="370" filterUnits="userSpaceOnUse" color-interpolation-filters="sRGB">
<feFlood flood-opacity="0" result="BackgroundImageFix"/>
<feColorMatrix in="SourceAlpha" type="matrix" values="0 0 0 0 0 0 0 0 0 0 0 0 0 0 0 0 0 0 127 0"/>
<feOffset dx="1" dy="1"/>
<feGaussianBlur stdDeviation="25"/>
<feColorMatrix type="matrix" values="0 0 0 0 0.0784314 0 0 0 0 0.0901961 0 0 0 0 0.211765 0 0 0 0.08 0"/>
<feBlend mode="normal" in2="BackgroundImageFix" result="effect1_dropShadow"/>
<feBlend mode="normal" in="SourceGraphic" in2="effect1_dropShadow" result="shape"/>
</filter>
<filter id="filter1_d" x="59" y="142" width="241" height="371" filterUnits="userSpaceOnUse" color-interpolation-filters="sRGB">
<feFlood flood-opacity="0" result="BackgroundImageFix"/>
<feColorMatrix in="SourceAlpha" type="matrix" values="0 0 0 0 0 0 0 0 0 0 0 0 0 0 0 0 0 0 127 0"/>
<feOffset dx="1" dy="1"/>
<feGaussianBlur stdDeviation="25"/>
<feColorMatrix type="matrix" values="0 0 0 0 0.0784314 0 0 0 0 0.0901961 0 0 0 0 0.211765 0 0 0 0.08 0"/>
<feBlend mode="normal" in2="BackgroundImageFix" result="effect1_dropShadow"/>
<feBlend mode="normal" in="SourceGraphic" in2="effect1_dropShadow" result="shape"/>
</filter>
<filter id="filter2_d" x="118" y="165" width="399" height="409" filterUnits="userSpaceOnUse" color-interpolation-filters="sRGB">
<feFlood flood-opacity="0" result="BackgroundImageFix"/>
<feColorMatrix in="SourceAlpha" type="matrix" values="0 0 0 0 0 0 0 0 0 0 0 0 0 0 0 0 0 0 127 0"/>
<feOffset dx="1" dy="1"/>
<feGaussianBlur stdDeviation="25"/>
<feColorMatrix type="matrix" values="0 0 0 0 0.0784314 0 0 0 0 0.0901961 0 0 0 0 0.211765 0 0 0 0.08 0"/>
<feBlend mode="normal" in2="BackgroundImageFix" result="effect1_dropShadow"/>
<feBlend mode="normal" in="SourceGraphic" in2="effect1_dropShadow" result="shape"/>
</filter>
<filter id="filter3_d" x="377" y="40" width="179" height="179" filterUnits="userSpaceOnUse" color-interpolation-filters="sRGB">
<feFlood flood-opacity="0" result="BackgroundImageFix"/>
<feColorMatrix in="SourceAlpha" type="matrix" values="0 0 0 0 0 0 0 0 0 0 0 0 0 0 0 0 0 0 127 0"/>
<feOffset dx="1" dy="1"/>
<feGaussianBlur stdDeviation="25"/>
<feColorMatrix type="matrix" values="0 0 0 0 0.0784314 0 0 0 0 0.0901961 0 0 0 0 0.211765 0 0 0 0.08 0"/>
<feBlend mode="normal" in2="BackgroundImageFix" result="effect1_dropShadow"/>
<feBlend mode="normal" in="SourceGraphic" in2="effect1_dropShadow" result="shape"/>
</filter>
<filter id="filter4_d" x="98.0303" y="94.8119" width="52.9394" height="29.9091" filterUnits="userSpaceOnUse" color-interpolation-filters="sRGB">
<feFlood flood-opacity="0" result="BackgroundImageFix"/>
<feColorMatrix in="SourceAlpha" type="matrix" values="0 0 0 0 0 0 0 0 0 0 0 0 0 0 0 0 0 0 127 0"/>
<feOffset dx="1" dy="2"/>
<feGaussianBlur stdDeviation="1"/>
<feColorMatrix type="matrix" values="0 0 0 0 0.85098 0 0 0 0 0.866667 0 0 0 0 0.894118 0 0 0 0.4 0"/>
<feBlend mode="normal" in2="BackgroundImageFix" result="effect1_dropShadow"/>
<feBlend mode="normal" in="SourceGraphic" in2="effect1_dropShadow" result="shape"/>
</filter>
<filter id="filter5_d" x="239.323" y="80.9207" width="44.3535" height="27.0654" filterUnits="userSpaceOnUse" color-interpolation-filters="sRGB">
<feFlood flood-opacity="0" result="BackgroundImageFix"/>
<feColorMatrix in="SourceAlpha" type="matrix" values="0 0 0 0 0 0 0 0 0 0 0 0 0 0 0 0 0 0 127 0"/>
<feOffset dx="1" dy="2"/>
<feGaussianBlur stdDeviation="1"/>
<feColorMatrix type="matrix" values="0 0 0 0 0.85098 0 0 0 0 0.866667 0 0 0 0 0.894118 0 0 0 0.4 0"/>
<feBlend mode="normal" in2="BackgroundImageFix" result="effect1_dropShadow"/>
<feBlend mode="normal" in="SourceGraphic" in2="effect1_dropShadow" result="shape"/>
</filter>
<linearGradient id="paint0_linear" x1="363.511" y1="612.219" x2="363.511" y2="631.444" gradientUnits="userSpaceOnUse">
<stop stop-color="#FF7554"/>
<stop offset="1" stop-color="#EDB169"/>
</linearGradient>
<linearGradient id="paint1_linear" x1="297.745" y1="612.631" x2="297.745" y2="631.463" gradientUnits="userSpaceOnUse">
<stop stop-color="#FF7554"/>
<stop offset="1" stop-color="#EDB169"/>
</linearGradient>
<linearGradient id="paint2_linear" x1="399.581" y1="631.675" x2="399.581" y2="569.574" gradientUnits="userSpaceOnUse">
<stop stop-color="#97B3E7"/>
<stop offset="1" stop-color="#A2BBEA"/>
</linearGradient>
<linearGradient id="paint3_linear" x1="330.224" y1="566.305" x2="331.666" y2="595.381" gradientUnits="userSpaceOnUse">
<stop stop-color="#5E7FB1"/>
<stop offset="1" stop-color="#A1B8E3" stop-opacity="0.19"/>
</linearGradient>
<linearGradient id="paint4_linear" x1="318.106" y1="584.68" x2="312.246" y2="570.601" gradientUnits="userSpaceOnUse">
<stop stop-color="#5E7FB1"/>
<stop offset="1" stop-color="#A1B8E3" stop-opacity="0.19"/>
</linearGradient>
<linearGradient id="paint5_linear" x1="322.126" y1="435.518" x2="322.126" y2="492.548" gradientUnits="userSpaceOnUse">
<stop stop-color="#FF7554"/>
<stop offset="1" stop-color="#EDB169"/>
</linearGradient>
<linearGradient id="paint6_linear" x1="320.407" y1="392.944" x2="320.407" y2="444.761" gradientUnits="userSpaceOnUse">
<stop stop-color="#FF7554"/>
<stop offset="1" stop-color="#EDB169"/>
</linearGradient>
<linearGradient id="paint7_linear" x1="355.365" y1="465.122" x2="355.365" y2="382.329" gradientUnits="userSpaceOnUse">
<stop stop-color="#32387F"/>
<stop offset="1" stop-color="#1A1643"/>
</linearGradient>
<linearGradient id="paint8_linear" x1="244.093" y1="537.965" x2="244.093" y2="568.873" gradientUnits="userSpaceOnUse">
<stop stop-color="#FF7554"/>
<stop offset="1" stop-color="#EDB169"/>
</linearGradient>
<linearGradient id="paint9_linear" x1="414.814" y1="537.965" x2="414.814" y2="568.873" gradientUnits="userSpaceOnUse">
<stop stop-color="#FF7554"/>
<stop offset="1" stop-color="#EDB169"/>
</linearGradient>
<linearGradient id="paint10_linear" x1="303.53" y1="617.95" x2="322.482" y2="613.177" gradientUnits="userSpaceOnUse">
<stop stop-color="#A1B8E3" stop-opacity="0.24"/>
<stop offset="1" stop-color="#002B6F"/>
</linearGradient>
<linearGradient id="paint11_linear" x1="306.018" y1="450.757" x2="306.018" y2="468.175" gradientUnits="userSpaceOnUse">
<stop stop-color="#DEEAFF"/>
<stop offset="1" stop-color="white"/>
</linearGradient>
<linearGradient id="paint12_linear" x1="330.064" y1="447.808" x2="323.101" y2="463.452" gradientUnits="userSpaceOnUse">
<stop stop-color="#DEEAFF"/>
<stop offset="1" stop-color="white"/>
</linearGradient>
<linearGradient id="paint13_linear" x1="434.698" y1="635.221" x2="466.715" y2="651.091" gradientUnits="userSpaceOnUse">
<stop stop-color="#47689B"/>
<stop offset="1" stop-color="#223762"/>
</linearGradient>
<linearGradient id="paint14_linear" x1="527.565" y1="542.825" x2="457.321" y2="611.323" gradientUnits="userSpaceOnUse">
<stop stop-color="#CFDDF3"/>
<stop offset="0.47" stop-color="#B3C7E9"/>
<stop offset="1" stop-color="#728FC5"/>
</linearGradient>
<clipPath id="clip0">
<rect width="55" height="21.6" fill="white" transform="translate(102 212.2)"/>
</clipPath>
<clipPath id="clip1">
<rect width="55" height="16.8" fill="white" transform="translate(102 270.6)"/>
</clipPath>
<clipPath id="clip2">
<rect width="55" height="16.8" fill="white" transform="translate(102 320.6)"/>
</clipPath>
<clipPath id="clip3">
<rect width="55" height="16.8" fill="white" transform="translate(102 370.6)"/>
</clipPath>
<clipPath id="clip4">
<rect width="141" height="271" fill="white" transform="translate(108 191)"/>
</clipPath>
<clipPath id="clip5">
<rect width="104" height="54" fill="white" transform="translate(131 219)"/>
</clipPath>
<clipPath id="clip6">
<rect width="46" height="21.6" fill="white" transform="translate(140 235.2)"/>
</clipPath>
<clipPath id="clip7">
<rect width="46" height="16.8" fill="white" transform="translate(170 293.6)"/>
</clipPath>
<clipPath id="clip8">
<rect width="104" height="42" fill="white" transform="translate(131 331)"/>
</clipPath>
<clipPath id="clip9">
<rect width="46" height="16.8" fill="white" transform="translate(140 343.6)"/>
</clipPath>
<clipPath id="clip10">
<rect width="46" height="16.8" fill="white" transform="translate(170 393.6)"/>
</clipPath>
<clipPath id="clip11">
<rect width="299" height="309" fill="white" transform="translate(167 214)"/>
</clipPath>
<clipPath id="clip12">
<rect width="62.4776" height="173.254" fill="white" transform="translate(389.242 331.884)"/>
</clipPath>
<clipPath id="clip13">
<rect width="26" height="158" fill="white" transform="translate(407.242 349.884)"/>
</clipPath>
<clipPath id="clip14">
<rect width="131" height="18.8" fill="white" transform="translate(192 272.1)"/>
</clipPath>
<clipPath id="clip15">
<rect width="131" height="15.6" fill="white" transform="translate(192 324.7)"/>
</clipPath>
<clipPath id="clip16">
<rect width="131" height="15.6" fill="white" transform="translate(192 371.7)"/>
</clipPath>
<clipPath id="clip17">
<rect width="189" height="39" fill="white" transform="translate(183 501)"/>
</clipPath>
<clipPath id="clip18">
<rect width="131" height="15.6" fill="white" transform="translate(192 512.7)"/>
</clipPath>
<clipPath id="clip19">
<rect width="131" height="15.6" fill="white" transform="translate(192 465.7)"/>
</clipPath>
<clipPath id="clip20">
<rect width="131" height="15.6" fill="white" transform="translate(192 418.7)"/>
</clipPath>
</defs>
</svg>
